<svg xmlns="http://www.w3.org/2000/svg" width="136" height="38" viewBox="0 0 136 38">
	<defs>
		<filter id="wi0pw36lia" color-interpolation-filters="auto">
			<feColorMatrix in="SourceGraphic" values="0 0 0 0 0.000000 0 0 0 0 0.000000 0 0 0 0 0.000000 0 0 0 1.000000 0"/>
		</filter>
	</defs>
	<g fill="none" fill-rule="evenodd">
		<g>
			<g filter="url(#wi0pw36lia)" transform="translate(-652.000000, -21.000000) translate(652.000000, 21.000000)">
				<g fill="#020302" fill-rule="nonzero">
					<g>
						<path d="M20.18 18.697c0 5.727-4.02 9.53-8.671 9.53-1.817 0-3.245-.525-4.367-1.436v5.504c0 1.578 1.571 1.882 1.571 2.812v.142c0 .405-.326.627-.857.627H1.122c-.53 0-.857-.222-.857-.627v-.142c0-.93 1.449-1.214 1.449-2.812V15.682c0-1.517-1.714-1.639-1.714-2.59v-.182c0-.364.306-.667.735-.89l4.183-2.023c1.04-.527 1.408-.04 1.408.667l-.02 1.558c1-1.558 2.876-2.428 5.182-2.428 4.306-.02 8.693 3.076 8.693 8.903zm-5.468 2.226c0-4.654-1.591-9.57-4.55-9.57-1.571 0-2.796 1.213-3.02 2.994v7.062c0 2.914 1.836 5.24 3.795 5.24 2.388 0 3.775-2.043 3.775-5.726zM37.688 13.133c0 1.558-.591 2.914-2.387 2.914-2.898 0-1.592-3.177-3.612-3.177-1.448 0-1.979 2.023-1.979 4.067v7.386c0 1.558 1.857 1.84 1.857 2.772v.141c0 .405-.327.628-.816.628h-6.877c-.53 0-.857-.223-.857-.628v-.141c0-.931 1.449-1.214 1.449-2.772v-8.64c0-1.62-1.714-1.74-1.714-2.651v-.142c0-.364.306-.668.775-.89l4.469-2.064c.857-.405 1.183.04 1.183.748v2.773c.817-2.368 2.571-3.663 5.06-3.663 2.225-.02 3.45 1.457 3.45 3.339zM55.686 22.663c-.225 2.145-2.755 5.585-7.57 5.585-5.183 0-9.02-3.703-9.02-9.369 0-5.362 4.143-9.085 9.02-9.085 4.876 0 7.04 2.813 7.04 5.24 0 1.255-.633 2.004-1.633 2.429l-8.264 3.743c.959 2.024 2.673 3.218 4.917 3.218 1.98 0 3.53-.992 4.245-2.145.449-.587 1.306-.405 1.265.384zM44.279 16.31c-.02 1.072.102 2.145.368 3.176l4.795-2.387c.673-.324.959-.951.959-1.74 0-1.336-.96-3.946-2.98-3.946-1.938-.02-3.142 2.084-3.142 4.897zM58.583 23.918c0-1.396.96-2.024 2.245-2.024 3.285 0 2.02 4.877 5.734 4.877 1.53 0 2.714-.769 2.714-2.428 0-4.917-10.366-1.842-10.366-9.126 0-3.136 3.101-5.423 7.57-5.423 4.693 0 7.672 2.145 7.672 4.432 0 1.072-.938 1.922-2.122 1.922-3.101 0-2.02-4.836-5.244-4.836-1.49 0-2.428 1.153-2.428 2.468 0 5.059 10.162 2.105 10.162 9.167 0 2.994-2.98 5.28-7.979 5.28-4.795-.02-7.958-2.023-7.958-4.31zM77.683 23.918c0-1.396.959-2.024 2.244-2.024 3.285 0 2.02 4.877 5.734 4.877 1.53 0 2.714-.769 2.714-2.428 0-4.917-10.346-1.842-10.346-9.126 0-3.136 3.082-5.423 7.57-5.423 4.694 0 7.673 2.145 7.673 4.432 0 1.072-.938 1.922-2.122 1.922-3.081 0-2.02-4.836-5.244-4.836-1.49 0-2.428 1.153-2.428 2.468 0 5.059 10.161 2.105 10.161 9.167 0 2.994-2.979 5.28-7.978 5.28-4.816-.02-7.978-2.023-7.978-4.31zM113.167 22.663c-.224 2.145-2.754 5.585-7.57 5.585-5.183 0-9.02-3.703-9.02-9.369 0-5.362 4.143-9.085 9.02-9.085s7.04 2.813 7.04 5.24c0 1.255-.633 2.004-1.633 2.429l-8.264 3.723c.96 2.024 2.673 3.217 4.918 3.217 1.98 0 3.53-.991 4.244-2.144.449-.567 1.306-.385 1.265.404zm-11.386-6.353c-.02 1.072.102 2.145.367 3.176l4.796-2.407c.673-.324.959-.951.959-1.74 0-1.336-.96-3.946-2.98-3.946-1.958 0-3.142 2.104-3.142 4.917zM135.613 27.135v.122c0 .404-.306.627-.755.627h-4.612c-.428.04-.816-.284-.857-.708v-.102l-.081-.809c-1.123 1.295-2.939 2.003-4.836 2.003-4.55 0-8.754-3.318-8.754-9.267 0-5.463 4.02-9.207 8.795-9.207 1.816 0 3.244.526 4.366 1.437V5.302c0-1.7-1.857-1.8-1.857-2.732v-.1c0-.365.306-.689.776-.85l4.877-1.478c1-.323 1.448-.1 1.448.729v23.452c.02 1.558 1.49 1.922 1.49 2.812zm-6.734-4.431v-6.516c0-2.367-1.857-4.836-4.06-4.836-2.286 0-3.694 2.003-3.755 5.423-.143 4.067 1.571 9.753 4.652 9.854 1.53.02 3.163-1.315 3.163-3.925z" transform="translate(0.000000, 0.529663)"/>
					</g>
				</g>
			</g>
		</g>
	</g>
</svg>
